<svg xmlns="http://www.w3.org/2000/svg" xmlns:xlink="http://www.w3.org/1999/xlink" width="302" zoomAndPan="magnify" viewBox="0 0 226.5 113.249998" height="151" preserveAspectRatio="xMidYMid meet" version="1.0"><defs><g/><clipPath id="b7057c1fe8"><path d="M 11.785156 21.890625 L 149.925781 21.890625 L 149.925781 91.332031 L 11.785156 91.332031 Z M 11.785156 21.890625 " clip-rule="nonzero"/></clipPath></defs><g clip-path="url(#b7057c1fe8)"><path fill="#ff3131" d="M 11.785156 -12.742188 L 149.925781 -12.742188 L 149.925781 125.402344 L 11.785156 125.402344 Z M 11.785156 -12.742188 " fill-opacity="1" fill-rule="nonzero"/></g><g fill="#ffffff" fill-opacity="1"><g transform="translate(29.981164, 74.20635)"><g><path d="M 17.265625 -1.84375 L 13.59375 -1.84375 L 13.59375 -31.234375 L 2.203125 -31.234375 L 2.203125 -29.390625 L 8.078125 -29.390625 L 8.078125 -6.25 C 8.078125 -3.988281 7.320312 -2.613281 5.8125 -2.125 C 5.070312 -1.9375 3.867188 -1.84375 2.203125 -1.84375 L 2.203125 0 L 19.109375 0 C 19.109375 -1.070312 18.738281 -1.660156 18 -1.765625 C 17.757812 -1.816406 17.515625 -1.84375 17.265625 -1.84375 Z M 14.484375 -41.953125 C 14.484375 -43.671875 13.722656 -44.898438 12.203125 -45.640625 C 11.609375 -45.878906 11.046875 -46 10.515625 -46 C 8.796875 -46 7.566406 -45.21875 6.828125 -43.65625 C 6.585938 -43.113281 6.46875 -42.546875 6.46875 -41.953125 C 6.46875 -40.140625 7.273438 -38.894531 8.890625 -38.21875 C 9.429688 -38.019531 9.972656 -37.921875 10.515625 -37.921875 C 12.222656 -37.921875 13.421875 -38.703125 14.109375 -40.265625 C 14.359375 -40.804688 14.484375 -41.367188 14.484375 -41.953125 Z M 14.484375 -41.953125 "/></g></g></g><g fill="#ffffff" fill-opacity="1"><g transform="translate(47.53091, 74.20635)"><g><path d="M 26.09375 -44.828125 C 20.207031 -44.828125 15.160156 -42.890625 10.953125 -39.015625 C 6.347656 -34.753906 4.046875 -29.195312 4.046875 -22.34375 C 4.046875 -14.40625 6.765625 -8.28125 12.203125 -3.96875 C 16.171875 -0.832031 20.726562 0.734375 25.875 0.734375 C 31.644531 0.734375 36.613281 -1.222656 40.78125 -5.140625 C 45.4375 -9.503906 47.765625 -15.140625 47.765625 -22.046875 C 47.765625 -30.128906 44.945312 -36.273438 39.3125 -40.484375 C 35.488281 -43.378906 31.082031 -44.828125 26.09375 -44.828125 Z M 26.09375 -1.328125 C 18.988281 -1.328125 14.429688 -5.125 12.421875 -12.71875 C 11.734375 -15.40625 11.390625 -18.515625 11.390625 -22.046875 C 11.390625 -33.703125 14.914062 -40.460938 21.96875 -42.328125 C 23.195312 -42.617188 24.5 -42.765625 25.875 -42.765625 C 35.519531 -42.671875 40.367188 -35.863281 40.421875 -22.34375 C 40.421875 -11.65625 37.457031 -5.015625 31.53125 -2.421875 C 29.863281 -1.691406 28.050781 -1.328125 26.09375 -1.328125 Z M 26.09375 -1.328125 "/></g></g></g><g fill="#ffffff" fill-opacity="1"><g transform="translate(95.579586, 74.20635)"><g><path d="M 18.671875 -1.84375 L 13.375 -1.84375 L 13.375 -16.46875 C 13.375 -20.914062 14.742188 -24.488281 17.484375 -27.1875 C 18.566406 -28.21875 19.472656 -28.757812 20.203125 -28.8125 C 21.035156 -28.8125 21.796875 -28.195312 22.484375 -26.96875 C 23.265625 -25.59375 24 -24.8125 24.6875 -24.625 C 24.976562 -24.519531 25.273438 -24.46875 25.578125 -24.46875 C 27.046875 -24.46875 27.972656 -25.179688 28.359375 -26.609375 C 28.460938 -26.898438 28.515625 -27.191406 28.515625 -27.484375 C 28.515625 -29.691406 27.382812 -31.039062 25.125 -31.53125 C 24.632812 -31.625 24.171875 -31.671875 23.734375 -31.671875 C 20.796875 -31.671875 18.175781 -30.421875 15.875 -27.921875 C 14.789062 -26.742188 13.929688 -25.421875 13.296875 -23.953125 L 13 -31.234375 L 2.359375 -31.234375 L 2.359375 -29.390625 L 7.859375 -29.390625 L 7.859375 -6.25 C 7.859375 -3.988281 7.222656 -2.640625 5.953125 -2.203125 C 5.210938 -1.960938 4.015625 -1.84375 2.359375 -1.84375 L 2.359375 0 L 20.5 0 C 20.5 -1.070312 20.132812 -1.660156 19.40625 -1.765625 C 19.207031 -1.816406 18.960938 -1.84375 18.671875 -1.84375 Z M 18.671875 -1.84375 "/></g></g></g><g fill="#ffffff" fill-opacity="1"><g transform="translate(120.698945, 74.20635)"><g><path d="M 28 0 L 38.5 0 C 38.5 -1.070312 38.132812 -1.660156 37.40625 -1.765625 C 37.207031 -1.816406 36.960938 -1.84375 36.671875 -1.84375 L 33 -1.84375 L 32.84375 -47.765625 L 20.359375 -47.765625 L 20.359375 -45.921875 L 27.34375 -45.921875 L 27.34375 -28 C 24.9375 -30.644531 21.703125 -31.96875 17.640625 -31.96875 C 12.242188 -31.96875 8.175781 -29.566406 5.4375 -24.765625 C 3.769531 -21.828125 2.9375 -18.519531 2.9375 -14.84375 C 2.9375 -8.769531 4.847656 -4.335938 8.671875 -1.546875 C 10.828125 -0.0234375 13.203125 0.734375 15.796875 0.734375 C 21.140625 0.640625 25.007812 -2.203125 27.40625 -7.796875 Z M 9.1875 -15.71875 C 9.1875 -22.632812 11.046875 -27.117188 14.765625 -29.171875 C 15.941406 -29.804688 17.242188 -30.125 18.671875 -30.125 C 22.242188 -30.125 24.789062 -28.210938 26.3125 -24.390625 C 27.144531 -22.335938 27.5625 -19.914062 27.5625 -17.125 C 27.5625 -11.238281 26.085938 -6.972656 23.140625 -4.328125 C 21.578125 -2.910156 19.789062 -2.203125 17.78125 -2.203125 C 13.769531 -2.203125 11.148438 -4.648438 9.921875 -9.546875 C 9.429688 -11.359375 9.1875 -13.414062 9.1875 -15.71875 Z M 9.1875 -15.71875 "/></g></g></g><g fill="#ffffff" fill-opacity="1"><g transform="translate(157.209472, 74.20635)"><g><path d="M 18.296875 -30.125 C 21.722656 -30.125 24 -28.679688 25.125 -25.796875 C 25.519531 -24.859375 25.71875 -23.851562 25.71875 -22.78125 C 25.71875 -20.332031 24.539062 -18.835938 22.1875 -18.296875 C 20.96875 -18.054688 19.226562 -17.957031 16.96875 -18 L 9.1875 -18.21875 C 9.425781 -23.851562 11.265625 -27.53125 14.703125 -29.25 C 15.828125 -29.832031 17.023438 -30.125 18.296875 -30.125 Z M 31.078125 -7.0625 L 29.25 -7.71875 C 27.53125 -3.988281 24.757812 -1.878906 20.9375 -1.390625 C 20.445312 -1.347656 19.984375 -1.328125 19.546875 -1.328125 C 14.398438 -1.328125 11.164062 -4.390625 9.84375 -10.515625 C 9.457031 -12.222656 9.238281 -14.109375 9.1875 -16.171875 L 18 -16.015625 C 23.976562 -15.921875 27.828125 -16.484375 29.546875 -17.703125 C 30.867188 -18.691406 31.53125 -20.09375 31.53125 -21.90625 C 31.53125 -25.226562 29.835938 -27.867188 26.453125 -29.828125 C 24.054688 -31.253906 21.289062 -31.96875 18.15625 -31.96875 C 12.03125 -31.96875 7.644531 -29.421875 5 -24.328125 C 3.625 -21.679688 2.9375 -18.691406 2.9375 -15.359375 C 2.9375 -9.285156 5.117188 -4.78125 9.484375 -1.84375 C 12.078125 -0.125 15.039062 0.734375 18.375 0.734375 C 23.664062 0.734375 27.5625 -1.175781 30.0625 -5 C 30.445312 -5.6875 30.785156 -6.375 31.078125 -7.0625 Z M 31.078125 -7.0625 "/></g></g></g><g fill="#ffffff" fill-opacity="1"><g transform="translate(187.546728, 74.20635)"><g><path d="M 18.671875 -1.84375 L 13.375 -1.84375 L 13.375 -16.46875 C 13.375 -20.914062 14.742188 -24.488281 17.484375 -27.1875 C 18.566406 -28.21875 19.472656 -28.757812 20.203125 -28.8125 C 21.035156 -28.8125 21.796875 -28.195312 22.484375 -26.96875 C 23.265625 -25.59375 24 -24.8125 24.6875 -24.625 C 24.976562 -24.519531 25.273438 -24.46875 25.578125 -24.46875 C 27.046875 -24.46875 27.972656 -25.179688 28.359375 -26.609375 C 28.460938 -26.898438 28.515625 -27.191406 28.515625 -27.484375 C 28.515625 -29.691406 27.382812 -31.039062 25.125 -31.53125 C 24.632812 -31.625 24.171875 -31.671875 23.734375 -31.671875 C 20.796875 -31.671875 18.175781 -30.421875 15.875 -27.921875 C 14.789062 -26.742188 13.929688 -25.421875 13.296875 -23.953125 L 13 -31.234375 L 2.359375 -31.234375 L 2.359375 -29.390625 L 7.859375 -29.390625 L 7.859375 -6.25 C 7.859375 -3.988281 7.222656 -2.640625 5.953125 -2.203125 C 5.210938 -1.960938 4.015625 -1.84375 2.359375 -1.84375 L 2.359375 0 L 20.5 0 C 20.5 -1.070312 20.132812 -1.660156 19.40625 -1.765625 C 19.207031 -1.816406 18.960938 -1.84375 18.671875 -1.84375 Z M 18.671875 -1.84375 "/></g></g></g></svg>